<svg width="30" height="30" viewBox="0 0 30 30" fill="none" xmlns="http://www.w3.org/2000/svg">
<path d="M21 7.5C21 7.10218 21.158 6.72064 21.4393 6.43934C21.7206 6.15804 22.1022 6 22.5 6C22.8978 6 23.2794 6.15804 23.5607 6.43934C23.842 6.72064 24 7.10218 24 7.5C24 7.89782 23.842 8.27936 23.5607 8.56066C23.2794 8.84196 22.8978 9 22.5 9C22.1022 9 21.7206 8.84196 21.4393 8.56066C21.158 8.27936 21 7.89782 21 7.5Z" fill="#FFF9F4"/>
<path fill-rule="evenodd" clip-rule="evenodd" d="M15 7.875C13.1103 7.875 11.2981 8.62567 9.96186 9.96186C8.62567 11.2981 7.875 13.1103 7.875 15C7.875 16.8897 8.62567 18.7019 9.96186 20.0381C11.2981 21.3743 13.1103 22.125 15 22.125C16.8897 22.125 18.7019 21.3743 20.0381 20.0381C21.3743 18.7019 22.125 16.8897 22.125 15C22.125 13.1103 21.3743 11.2981 20.0381 9.96186C18.7019 8.62567 16.8897 7.875 15 7.875ZM10.125 15C10.125 13.7071 10.6386 12.4671 11.5529 11.5529C12.4671 10.6386 13.7071 10.125 15 10.125C16.2929 10.125 17.5329 10.6386 18.4471 11.5529C19.3614 12.4671 19.875 13.7071 19.875 15C19.875 16.2929 19.3614 17.5329 18.4471 18.4471C17.5329 19.3614 16.2929 19.875 15 19.875C13.7071 19.875 12.4671 19.3614 11.5529 18.4471C10.6386 17.5329 10.125 16.2929 10.125 15Z" fill="#FFF9F4"/>
<path fill-rule="evenodd" clip-rule="evenodd" d="M22.887 1.24833C17.645 0.667223 12.3549 0.667223 7.11296 1.24833C4.09496 1.58583 1.65746 3.96333 1.30346 6.99633C0.681561 12.3132 0.681561 17.6845 1.30346 23.0013C1.65746 26.0343 4.09346 28.4118 7.11296 28.7493C12.3549 29.3298 17.645 29.3298 22.887 28.7493C25.905 28.4118 28.3425 26.0343 28.6965 23.0013C29.3185 17.6845 29.3185 12.3132 28.6965 6.99633C28.3425 3.96333 25.9065 1.58583 22.887 1.24833ZM7.36196 3.48333C12.4384 2.92064 17.5615 2.92064 22.638 3.48333C24.633 3.70833 26.2305 5.28183 26.463 7.25883C27.0644 12.4013 27.0644 17.5964 26.463 22.7388C26.3427 23.7064 25.8998 24.6052 25.2057 25.29C24.5117 25.9747 23.607 26.4056 22.638 26.5128C17.5615 27.0756 12.4384 27.0756 7.36196 26.5128C6.39287 26.4056 5.48824 25.9747 4.79419 25.29C4.10015 24.6052 3.65722 23.7064 3.53696 22.7388C2.93553 17.5964 2.93553 12.4013 3.53696 7.25883C3.65722 6.29127 4.10015 5.3925 4.79419 4.70771C5.48824 4.02292 6.39287 3.59059 7.36196 3.48333Z" fill="#FFF9F4"/>
</svg>
